<svg width="40" height="40" viewBox="0 0 40 40" fill="none" xmlns="http://www.w3.org/2000/svg">
<path d="M30.2631 7.42188H9.73832C7.12147 7.42188 5 9.54354 5 12.1618V23.4062C5 26.0245 7.12147 28.1461 9.73832 28.1461H16.808L19.2205 32.0616C19.2205 32.0616 19.2471 32.1077 19.2989 32.1732C19.4402 32.4146 19.7005 32.5778 20 32.5778C20.2995 32.5778 20.557 32.416 20.6983 32.1774C20.7585 32.1063 20.7795 32.0603 20.7795 32.0603L23.192 28.1447H30.2617C32.8785 28.1447 35 26.0231 35 23.4048V12.1618C35 9.54354 32.8785 7.42188 30.2617 7.42188H30.2631Z" fill="black"/>
<path d="M11.6647 15.6582C11.6647 15.6582 10.8461 15.6582 10.103 16.3794V13.4766H8.26562V21.104H10.1212V20.5069C10.1212 20.5069 10.5592 21.2951 11.6633 21.2951C11.6633 21.2951 14.2522 21.2002 14.2522 18.448C14.2522 18.448 14.157 15.6582 11.6633 15.6582H11.6647ZM11.2603 19.6839C10.6082 19.6839 10.0792 19.1567 10.0792 18.5066C10.0792 17.8566 10.6082 17.3307 11.2603 17.3307C11.9124 17.3307 12.44 17.858 12.44 18.5066C12.44 19.1553 11.911 19.6839 11.2603 19.6839Z" fill="white"/>
<path d="M14.8438 13.3047V15.0693C14.8438 15.0693 15.682 15.0316 15.682 16.5869V21.1023H17.4522V16.1698C17.4522 16.1698 17.5278 13.3047 14.8438 13.3047Z" fill="white"/>
<path d="M21.7778 15.6875C21.7778 15.6875 18.7425 15.6875 18.7425 18.5122C18.7425 18.5122 18.6446 21.2992 21.7778 21.2992C21.7778 21.2992 24.883 21.2951 24.883 18.5122C24.883 18.5122 24.9838 15.6875 21.7778 15.6875ZM21.7778 19.6895C21.1257 19.6895 20.5967 19.1622 20.5967 18.5122C20.5967 17.8622 21.1257 17.3363 21.7778 17.3363C22.4299 17.3363 22.9575 17.8636 22.9575 18.5122C22.9575 19.1608 22.4285 19.6895 21.7778 19.6895Z" fill="white"/>
<path d="M30.0345 16.0972C30.0345 16.0972 29.4243 15.688 28.4112 15.688C28.4112 15.688 25.8125 15.5792 25.8125 18.4932C25.8125 18.4932 25.7831 21.2091 28.3398 21.2091C28.3398 21.2091 29.0535 21.3095 29.9519 21.0389C29.9519 21.0389 30.0806 22.2762 28.782 22.2762H28.3398V23.8985H29.0535C29.0535 23.8985 31.7375 23.9278 31.7375 21.0389V15.8735H30.0345V16.0972ZM28.8548 19.69C28.2027 19.69 27.6751 19.1628 27.6751 18.5127C27.6751 17.8627 28.2027 17.3368 28.8548 17.3368C29.5069 17.3368 30.0345 17.8641 30.0345 18.5127C30.0345 19.1614 29.5055 19.69 28.8548 19.69Z" fill="white"/>
</svg>
