<svg width="40" height="40" viewBox="0 0 40 40" fill="none" xmlns="http://www.w3.org/2000/svg">
<path d="M34.3716 12.3002C34.2096 11.653 33.8797 11.06 33.4151 10.5811C32.9505 10.1022 32.3678 9.75446 31.7258 9.57294C29.3805 9 19.9994 9 19.9994 9C19.9994 9 10.6183 9 8.27297 9.62768C7.63134 9.80928 7.04897 10.1569 6.58465 10.6356C6.12033 11.1142 5.7905 11.7069 5.62845 12.3537C5.19905 14.7339 4.98895 17.1485 5.00077 19.5672C4.98558 22.0041 5.1957 24.4371 5.62845 26.8353C5.80696 27.4622 6.14413 28.0325 6.60737 28.4911C7.07062 28.9496 7.64429 29.281 8.27297 29.4531C10.6183 30.0808 19.9994 30.0808 19.9994 30.0808C19.9994 30.0808 29.3805 30.0808 31.7258 29.4531C32.3678 29.2716 32.9505 28.9238 33.4151 28.445C33.8797 27.9661 34.2096 27.3731 34.3716 26.7259C34.7976 24.3636 35.0077 21.9675 34.9992 19.5672C35.0144 17.1303 34.8043 14.6984 34.3716 12.3002Z" fill="black"/>
<path d="M16.9297 24.027L24.7757 19.5676L16.9297 15.1094V24.027Z" fill="white"/>
</svg>
